@startuml

interface Collision
interface SolidCollision
interface BouncerCollision
interface UpdateableEntityCollision
interface ShellEnemyCollision
interface EnemyCollision

abstract class BaseCollision

'Dentro de collisions
'
BaseCollision ..|> Collision

CoinCollision -u-|> BaseCollision 
CoinCollision "1" --> "1" CoinCollider

FlagPoleCollision -u-|> BaseCollision
FlagPoleCollision "1" --> "1" FlagPoleCollider

LanguageSwitcherCollision .u.|> UpdateableEntityCollision
LanguageSwitcherCollision -u-|> BaseCollision
LanguageSwitcherCollision "1" --> "1" LanguageSwitcherCollider

ModeSwitcherCollision .u.|> UpdateableEntityCollision
ModeSwitcherCollision -u-|> BaseCollision
ModeSwitcherCollision "1" --> "1" ModeSwitcherCollider

RankingShowCollision .u.|> UpdateableEntityCollision
RankingShowCollision -u-|> BaseCollision 
RankingShowCollision "1" --> "1" RankingShowCollider

'Dentro de invisibles

DelaterCollision -u-|> BaseCollision
DelaterCollision "1" --> "1" DelaterCollider

EmptyBlockCollision -u-|> BaseCollision
EmptyBlockCollision "1" --> "1" EmptyBlockCollider

LevelEndCollision -u-|> BaseCollision
LevelEndCollision "1" --> "1" LevelEndCollider

LoaderCollision -u-|> BaseCollision
LoaderCollision "1" --> "1" LoaderCollider

ScreenBorderCollision -u-|> BaseCollision
ScreenBorderCollision "1" --> "1" ScreenBorderCollider

ScreenDisplamentCollision -u-|> BaseCollision
ScreenDisplamentCollision "1" --> "1" ScreenBorderCollider

UnloaderCollision -u-|> BaseCollision
UnloaderCollision "1" --> "1" GraphicUnloaderCollider

'Dentro de Solids

SolidCollision --|> Collision

BlockCollision .u.|> SolidCollision
BlockCollision -u-|> BaseCollision 
BlockCollision "1" --> "1" BlockCollider

BrickCollision .u.|> SolidCollision
BrickCollision -u-|> BaseCollision 
BrickCollision "1" --> "1" BrickCollider

PipeCollision .u.|> SolidCollision
PipeCollision -u-|> BaseCollision 
PipeCollision "1" --> "1" PipeCollider

QuestionBlockCollision .u.|> SolidCollision
QuestionBlockCollision .u.|> UpdateableEntityCollision
QuestionBlockCollision -u-|> BaseCollision 
QuestionBlockCollision "1" --> "1" QuestionBlockCollider

'Dentro de Updeteables

UpdateableEntityCollision .u.|> Collision
BouncerCollision .u.|> UpdateableEntityCollision

FireBallCollision .u.> BouncerCollision
FireBallCollision -u-|> BaseCollision
FireBallCollision "1" --> "1" FireBallCollider

' Dentro de enemigos

EnemyCollision -u-|> UpdateableEntityCollision

ShellEnemyCollision -u-|> EnemyCollision

BuzzyBeetleCollision .u.|> ShellEnemyCollision
BuzzyBeetleCollision -u-|> BaseCollision
BuzzyBeetleCollision "1" --> "1" BuzzyBeetleCollider

GoombaCollision .u.|> EnemyCollision
GoombaCollision -u-|> BaseCollision 
GoombaCollision "1" --> "1" GoombaCollider

KoopaTroopa .u.|> ShellEnemyCollision
KoopaTroopa -u-|> BaseCollision
KoopaTroopa "1" --> "1" KoopaTroopaCollider

LakituCollision .u.|> EnemyCollision
LakituCollision -u-|> BaseCollision 
LakituCollision "1" --> "1" LakituCollider

PiranhaPlantCollision .u.|> EnemyCollision
PiranhaPlantCollision -u-|> BaseCollision
PiranhaPlantCollision "1" --> "1" PiranhaPlantCollider

SpinyCollision .u.|> EnemyCollision
SpinyCollision --|> BaseCollision
SpinyCollision "1" --> "1" SpinyCollider

'Dentro de Mario

FireMarioCollision -u-|> SuperMarioCollision
MarioCollision -u-|> UpdateableEntityCollision

DefaultMarioCollision .u.|> MarioCollision
DefaultMarioCollision -u-|> BaseCollision
DefaultMarioCollision "1" --> "1" MarioCollider

InvulnerableCollision .u.|> MarioCollision
InvulnerableCollision -u-|> BaseCollision
InvulnerableCollision "1" --> "1" MarioCollider

StarMarioCollision .u.|> MarioCollision
StarMarioCollision -u-|> BaseCollision
StarMarioCollision "1" --> "1" MarioCollider

SuperMarioCollision .u.|> MarioCollision
SuperMarioCollision -u-|> BaseCollision 
SuperMarioCollision "1" --> "1" MarioCollider

'Dentro de PowerUp
'
PowerUpCollision -u-|> UpdateableEntityCollision

FireFlowerCollision .u.|> PowerUpCollision
FireFlowerCollision -u-|> BaseCollision
FireFlowerCollision "1" --> "1" FireFlowerCollider

GreenMushroomCollision .u.|> PowerUpCollision
GreenMushroomCollision -u-|> BaseCollision
GreenMushroomCollision "1" --> "1" GreenMushroomCollider

StarCollision .u.|> PowerUpCollision
StarCollision .u.|> BouncerCollision
StarCollision -u-|> BaseCollision
StarCollision "1" --> "1" StarCollider

SuperMushroomCollision .u.|> PowerUpCollision
SuperMushroomCollision -u-|> BaseCollision
SuperMushroomCollision "1" --> "1" SuperMushroomCollider
@enduml
